<svg version="1.1" id="Layer_1" xmlns="http://www.w3.org/2000/svg" xmlns:xlink="http://www.w3.org/1999/xlink" x="0px" y="0px"
	 width="100%" viewBox="0 0 525 945" enable-background="new 0 0 525 945" xml:space="preserve">
<path fill="#FFFFFF" opacity="1.000000" stroke="none" 
	d="
M0.999999,225.000000 
	C1.000000,150.442352 1.000000,75.884705 1.000000,1.000000 
	C24.355640,1.000000 47.712811,1.000000 71.324417,1.342464 
	C54.366253,3.839283 39.431000,10.523639 27.240456,23.196093 
	C8.186721,43.003048 1.105438,66.357483 7.101218,93.081192 
	C16.359407,134.345749 54.729374,156.894669 92.838928,150.749451 
	C111.396782,147.756927 127.059456,138.814163 138.977676,123.650795 
	C154.484848,103.921295 159.388168,81.871735 153.263092,57.818096 
	C146.072952,29.581951 127.497871,11.824310 99.808182,3.444012 
	C95.976524,2.284361 91.941093,1.798037 88.000000,1.000000 
	C233.969238,1.000000 379.938477,1.000000 525.953857,1.000000 
	C525.953857,315.902863 525.953857,630.805725 525.953857,945.854309 
	C351.000092,945.854309 176.000061,945.854309 1.000000,945.854309 
	C1.000000,901.578064 1.000000,857.254089 1.340868,812.669922 
	C2.454242,821.437622 3.962671,830.481506 3.766810,839.488342 
	C3.609635,846.716248 11.800827,853.540649 19.067026,852.961243 
	C25.629955,852.437927 32.246296,852.035889 38.704422,850.848145 
	C59.179733,847.082520 79.716270,843.513367 99.992249,838.840393 
	C118.613068,834.548889 136.740906,828.184204 153.388535,818.690308 
	C175.242157,806.227600 196.428741,792.598938 218.218628,780.019897 
	C244.973068,764.574951 273.270813,752.561707 303.128876,744.478699 
	C327.746948,737.814148 352.654327,734.392944 378.252960,737.915222 
	C401.542572,741.119812 422.784668,749.148315 441.661133,763.179749 
	C450.978180,770.105408 457.794312,770.203735 465.242432,762.134033 
	C475.213531,751.330872 484.851501,740.211853 494.396912,729.027405 
	C500.388092,722.007507 499.151733,712.551208 491.657104,707.372742 
	C483.417755,701.679749 475.096527,696.074341 466.539948,690.876953 
	C434.789062,671.590881 399.895447,663.145752 363.108582,662.148315 
	C352.081818,661.849304 340.947327,662.815125 329.969818,664.112427 
	C317.107819,665.632446 304.197906,667.437988 291.602386,670.377563 
	C265.459808,676.478943 240.309967,685.750793 215.997452,697.079346 
	C186.085266,711.017151 157.234375,726.978333 129.985382,745.615723 
	C115.513290,755.514160 99.801628,762.371765 83.062813,766.784058 
	C62.092300,772.311768 40.804123,776.367920 19.110661,778.099670 
	C12.630792,778.616882 5.960629,779.601746 2.669963,786.540100 
	C2.018459,785.549133 1.509227,784.774597 0.999998,784.000000 
	C1.000000,606.976685 1.000000,429.953339 1.342926,252.674942 
	C2.457266,262.617188 3.368845,272.806580 3.949354,283.014771 
	C4.318110,289.499298 8.450645,294.207001 14.872890,293.920532 
	C22.771597,293.568207 30.729357,293.140778 38.510891,291.842529 
	C56.460552,288.847839 74.446312,285.868591 92.183289,281.849731 
	C115.498772,276.566864 138.427017,269.421631 158.689026,256.449921 
	C188.686081,237.245834 219.030792,218.793823 251.561859,204.150665 
	C269.870667,195.909363 288.572266,188.666382 308.135956,184.077606 
	C327.350830,179.570663 346.742493,175.880798 366.686249,178.001328 
	C374.049622,178.784256 381.540466,178.974304 388.748505,180.497803 
	C409.798279,184.946945 428.923737,193.729568 445.830536,207.220657 
	C451.514801,211.756531 457.459625,211.151794 462.623993,205.832382 
	C467.241699,201.076111 471.773071,196.228790 476.181061,191.277847 
	C483.210114,183.383041 490.166107,175.420990 497.031677,167.383728 
	C500.549591,163.265411 499.639282,154.415466 495.458710,151.180435 
	C478.588196,138.125671 460.549805,127.101791 440.781525,118.874252 
	C416.145721,108.620850 390.374847,103.947578 363.916565,103.166809 
	C352.560730,102.831711 341.085358,103.775993 329.782928,105.129295 
	C316.770447,106.687340 303.755066,108.750404 290.980896,111.650864 
	C269.648010,116.494637 249.058990,123.756813 228.959076,132.467407 
	C198.196228,145.798950 168.794800,161.609528 140.583679,179.702759 
	C125.945663,189.090866 111.692192,199.101440 94.669739,204.226440 
	C70.056091,211.636917 45.025543,216.519730 19.469940,219.184296 
	C13.523987,219.804245 6.247376,218.504257 2.333252,225.455811 
	C2.291234,225.530441 1.461832,225.161743 0.999999,225.000000 
M429.000000,486.500000 
	C435.447021,479.387970 442.120514,472.466400 448.295349,465.125427 
	C462.469421,448.274597 474.072571,429.774841 482.768707,409.508057 
	C486.281738,401.320740 482.097504,392.197968 473.563354,388.997742 
	C460.179688,383.978912 446.807526,378.928436 433.461792,373.809753 
	C426.399658,371.101105 417.950317,374.151886 414.467255,381.088593 
	C401.777466,406.361145 384.607056,427.999664 363.168304,446.494873 
	C346.350800,461.003387 327.938385,473.056396 308.566406,483.630585 
	C289.178192,494.213562 268.690826,502.397980 247.824905,509.703796 
	C233.165390,514.836548 218.454361,517.725403 202.762726,517.187866 
	C180.955521,516.440857 159.103561,517.000000 137.270767,517.000000 
	C98.438385,517.000000 59.605995,516.992615 20.773617,517.005493 
	C11.704620,517.008484 5.211260,522.366028 5.077787,530.671753 
	C4.823424,546.500671 4.860998,562.338318 5.062985,578.168640 
	C5.162459,585.964722 10.689157,590.992615 18.484186,590.993103 
	C166.813889,591.002380 315.143585,591.002563 463.473297,590.992981 
	C471.743134,590.992493 476.982422,585.692810 476.994141,577.368469 
	C477.015015,562.535522 477.000153,547.702515 476.999939,532.869568 
	C476.999756,522.352417 471.554535,517.008179 460.790527,517.002869 
	C440.457703,516.992920 420.124847,517.003662 399.792023,516.991943 
	C398.409790,516.991089 397.027649,516.874268 396.125397,516.833191 
	C406.934296,506.872772 417.717163,496.936401 429.000000,486.500000 
M5.120364,464.860229 
	C5.120364,467.790436 5.120364,470.720642 5.120364,473.587219 
	C83.727791,473.587219 161.748444,473.587219 240.248886,473.587219 
	C239.794479,469.868744 239.564758,466.589111 238.969009,463.377411 
	C237.207596,453.881500 236.298508,444.077209 233.246674,435.001953 
	C226.689636,415.503143 215.659241,398.774597 199.846649,385.159088 
	C188.552338,375.434082 176.118393,367.980225 162.194794,362.998352 
	C145.212067,356.921936 127.827736,354.794647 109.714783,356.808258 
	C95.419014,358.397491 81.856827,362.135986 69.266624,368.587891 
	C55.134918,375.829742 42.564568,385.332825 32.384548,397.927795 
	C24.100166,408.177460 17.022190,419.108154 13.002651,431.528656 
	C9.592535,442.066010 7.925928,453.167603 5.120364,464.860229 
M369.509888,895.000000 
	C373.666779,894.999939 377.847961,895.289429 381.975739,894.942871 
	C392.301971,894.075989 401.676117,891.045959 407.628418,881.696838 
	C411.290405,875.945068 412.204468,869.560059 412.076630,862.776123 
	C411.812042,848.737671 403.748657,837.388428 390.061798,835.240295 
	C379.399139,833.566833 368.398560,834.046448 357.324829,833.559326 
	C357.324829,854.561462 357.324829,874.566650 357.324829,895.000000 
	C361.264648,895.000000 364.891205,895.000000 369.509888,895.000000 
M456.382233,874.820557 
	C462.949341,891.789673 478.040649,897.695801 494.801392,894.187073 
	C507.602112,891.507263 517.681335,877.181458 517.206055,863.611694 
	C516.766174,851.051636 509.747620,840.013245 498.932800,835.470520 
	C486.942871,830.434082 472.244263,833.054565 463.636505,841.898621 
	C454.720154,851.059753 453.414581,862.111267 456.382233,874.820557 
M326.000000,862.479980 
	C325.999969,865.310242 325.918671,868.143372 326.018921,870.970093 
	C326.170105,875.233032 324.480499,878.299866 320.502686,879.992676 
	C316.266602,881.795410 312.023315,881.693848 309.426270,877.684326 
	C307.586578,874.844055 306.271790,871.160950 306.150757,867.802551 
	C305.751099,856.713806 306.000122,845.601685 306.000122,834.377197 
	C300.720428,834.377197 296.020325,834.377197 291.000000,834.377197 
	C291.000000,847.384521 290.858734,860.019531 291.046814,872.649719 
	C291.185516,881.961975 294.941925,889.511902 304.052429,892.843262 
	C308.397888,894.432312 313.345490,894.754456 318.046143,894.920654 
	C331.788025,895.406433 342.029480,884.891724 342.003052,870.980225 
	C341.986633,862.322876 342.000000,853.665466 342.000000,845.008118 
	C342.000000,841.425781 342.000000,837.843384 342.000000,834.314819 
	C336.277252,834.314819 331.359436,834.314819 326.000000,834.314819 
	C326.000000,843.577087 326.000000,852.531799 326.000000,862.479980 
M206.771957,852.000000 
	C210.725555,852.000000 214.679153,852.000000 218.762466,852.000000 
	C219.610764,845.559204 216.886841,841.210083 212.548233,837.912354 
	C204.650085,831.908936 195.611237,832.049316 186.582062,834.312622 
	C179.256241,836.148926 174.267319,842.924805 174.001144,850.256165 
	C173.696030,858.659363 177.141525,863.997925 185.000031,867.060181 
	C189.434402,868.788147 193.946304,870.316223 198.398483,871.999878 
	C203.125916,873.787781 205.131866,877.792847 202.708221,880.460205 
	C199.427444,884.070923 193.416077,883.184143 190.990158,878.915039 
	C190.309875,877.717896 188.902161,876.225647 187.734650,876.139709 
	C183.301147,875.813660 178.829346,876.008423 174.049896,876.008423 
	C174.039612,882.137146 175.963333,886.666931 180.413940,890.164307 
	C188.530762,896.542480 197.681580,895.813049 206.899094,893.962952 
	C213.892273,892.559265 219.190277,886.216187 219.987808,878.942688 
	C220.862625,870.964417 218.004044,865.317261 210.806183,862.013672 
	C205.746689,859.691589 200.345871,858.121033 195.240021,855.888855 
	C192.574097,854.723450 189.867920,852.928162 190.969482,849.266785 
	C192.013931,845.795227 195.040771,845.399719 197.860443,846.216309 
	C199.392349,846.660095 200.433456,848.619995 201.851379,849.690002 
	C203.072647,850.611694 204.514313,851.241272 206.771957,852.000000 
M232.799850,846.962402 
	C237.402069,846.962402 242.004288,846.962402 247.212524,846.962402 
	C247.212524,863.364380 247.212524,879.071777 247.212524,894.662964 
	C252.764053,894.662964 257.683929,894.662964 263.220795,894.662964 
	C263.220795,878.626831 263.220795,862.918518 263.220795,846.774658 
	C268.436615,846.774658 273.030914,846.774658 277.564087,846.774658 
	C277.564087,842.272339 277.564087,838.233398 277.564087,834.344482 
	C261.877136,834.344482 246.628479,834.344482 230.625839,834.344482 
	C231.070038,838.763184 231.473846,842.780212 232.799850,846.962402 
M435.411560,895.000000 
	C437.167419,895.000000 438.923309,895.000000 440.712921,895.000000 
	C440.712921,874.333069 440.712921,854.417419 440.712921,834.382751 
	C435.715668,834.382751 431.010742,834.382751 426.294800,834.382751 
	C426.294800,854.682800 426.294800,874.598633 426.294800,895.000000 
	C429.207123,895.000000 431.831604,895.000000 435.411560,895.000000 
z"/>
<path fill="#55F9CE" opacity="1.000000" stroke="none" 
	d="
M0.999999,225.467606 
	C1.461832,225.161743 2.291234,225.530441 2.333252,225.455811 
	C6.247376,218.504257 13.523987,219.804245 19.469940,219.184296 
	C45.025543,216.519730 70.056091,211.636917 94.669739,204.226440 
	C111.692192,199.101440 125.945663,189.090866 140.583679,179.702759 
	C168.794800,161.609528 198.196228,145.798950 228.959076,132.467407 
	C249.058990,123.756813 269.648010,116.494637 290.980896,111.650864 
	C303.755066,108.750404 316.770447,106.687340 329.782928,105.129295 
	C341.085358,103.775993 352.560730,102.831711 363.916565,103.166809 
	C390.374847,103.947578 416.145721,108.620850 440.781525,118.874252 
	C460.549805,127.101791 478.588196,138.125671 495.458710,151.180435 
	C499.639282,154.415466 500.549591,163.265411 497.031677,167.383728 
	C490.166107,175.420990 483.210114,183.383041 476.181061,191.277847 
	C471.773071,196.228790 467.241699,201.076111 462.623993,205.832382 
	C457.459625,211.151794 451.514801,211.756531 445.830536,207.220657 
	C428.923737,193.729568 409.798279,184.946945 388.748505,180.497803 
	C381.540466,178.974304 374.049622,178.784256 366.686249,178.001328 
	C346.742493,175.880798 327.350830,179.570663 308.135956,184.077606 
	C288.572266,188.666382 269.870667,195.909363 251.561859,204.150665 
	C219.030792,218.793823 188.686081,237.245834 158.689026,256.449921 
	C138.427017,269.421631 115.498772,276.566864 92.183289,281.849731 
	C74.446312,285.868591 56.460552,288.847839 38.510891,291.842529 
	C30.729357,293.140778 22.771597,293.568207 14.872890,293.920532 
	C8.450645,294.207001 4.318110,289.499298 3.949354,283.014771 
	C3.368845,272.806580 2.457266,262.617188 1.342926,252.209930 
	C1.000000,250.933334 1.000000,249.866653 1.330211,248.210205 
	C1.440281,245.746948 1.220141,243.873474 1.000000,242.000000 
	C1.000000,236.645065 1.000000,231.290146 0.999999,225.467606 
z"/>
<path fill="#55F9CE" opacity="1.000000" stroke="none" 
	d="
M0.999998,784.467957 
	C1.509227,784.774597 2.018459,785.549133 2.669963,786.540100 
	C5.960629,779.601746 12.630792,778.616882 19.110661,778.099670 
	C40.804123,776.367920 62.092300,772.311768 83.062813,766.784058 
	C99.801628,762.371765 115.513290,755.514160 129.985382,745.615723 
	C157.234375,726.978333 186.085266,711.017151 215.997452,697.079346 
	C240.309967,685.750793 265.459808,676.478943 291.602386,670.377563 
	C304.197906,667.437988 317.107819,665.632446 329.969818,664.112427 
	C340.947327,662.815125 352.081818,661.849304 363.108582,662.148315 
	C399.895447,663.145752 434.789062,671.590881 466.539948,690.876953 
	C475.096527,696.074341 483.417755,701.679749 491.657104,707.372742 
	C499.151733,712.551208 500.388092,722.007507 494.396912,729.027405 
	C484.851501,740.211853 475.213531,751.330872 465.242432,762.134033 
	C457.794312,770.203735 450.978180,770.105408 441.661133,763.179749 
	C422.784668,749.148315 401.542572,741.119812 378.252960,737.915222 
	C352.654327,734.392944 327.746948,737.814148 303.128876,744.478699 
	C273.270813,752.561707 244.973068,764.574951 218.218628,780.019897 
	C196.428741,792.598938 175.242157,806.227600 153.388535,818.690308 
	C136.740906,828.184204 118.613068,834.548889 99.992249,838.840393 
	C79.716270,843.513367 59.179733,847.082520 38.704422,850.848145 
	C32.246296,852.035889 25.629955,852.437927 19.067026,852.961243 
	C11.800827,853.540649 3.609635,846.716248 3.766810,839.488342 
	C3.962671,830.481506 2.454242,821.437622 1.340868,812.204834 
	C1.000000,810.933289 1.000000,809.866638 1.330223,808.210205 
	C1.440297,805.747009 1.220148,803.873474 0.999999,802.000000 
	C1.000000,796.311951 1.000000,790.623962 0.999998,784.467957 
z"/>
<path fill="#55F9CE" opacity="1.000000" stroke="none" 
	d="
M87.533142,1.000000 
	C91.941093,1.798037 95.976524,2.284361 99.808182,3.444012 
	C127.497871,11.824310 146.072952,29.581951 153.263092,57.818096 
	C159.388168,81.871735 154.484848,103.921295 138.977676,123.650795 
	C127.059456,138.814163 111.396782,147.756927 92.838928,150.749451 
	C54.729374,156.894669 16.359407,134.345749 7.101218,93.081192 
	C1.105438,66.357483 8.186721,43.003048 27.240456,23.196093 
	C39.431000,10.523639 54.366253,3.839283 71.789429,1.342464 
	C77.022095,1.000000 82.044182,1.000000 87.533142,1.000000 
z"/>
<path fill="#FFFFFF" opacity="1.000000" stroke="none" 
	d="
M0.999999,802.428467 
	C1.220148,803.873474 1.440297,805.747009 1.330223,807.810242 
	C1.000000,806.285645 1.000000,804.571289 0.999999,802.428467 
z"/>
<path fill="#FFFFFF" opacity="1.000000" stroke="none" 
	d="
M1.000000,242.428467 
	C1.220141,243.873474 1.440281,245.746948 1.330211,247.810211 
	C1.000000,246.285645 1.000000,244.571289 1.000000,242.428467 
z"/>
<path fill="#55F9CE" opacity="1.000000" stroke="none" 
	d="
M428.750000,486.750000 
	C417.717163,496.936401 406.934296,506.872772 396.125397,516.833191 
	C397.027649,516.874268 398.409790,516.991089 399.792023,516.991943 
	C420.124847,517.003662 440.457703,516.992920 460.790527,517.002869 
	C471.554535,517.008179 476.999756,522.352417 476.999939,532.869568 
	C477.000153,547.702515 477.015015,562.535522 476.994141,577.368469 
	C476.982422,585.692810 471.743134,590.992493 463.473297,590.992981 
	C315.143585,591.002563 166.813889,591.002380 18.484186,590.993103 
	C10.689157,590.992615 5.162459,585.964722 5.062985,578.168640 
	C4.860998,562.338318 4.823424,546.500671 5.077787,530.671753 
	C5.211260,522.366028 11.704620,517.008484 20.773617,517.005493 
	C59.605995,516.992615 98.438385,517.000000 137.270767,517.000000 
	C159.103561,517.000000 180.955521,516.440857 202.762726,517.187866 
	C218.454361,517.725403 233.165390,514.836548 247.824905,509.703796 
	C268.690826,502.397980 289.178192,494.213562 308.566406,483.630585 
	C327.938385,473.056396 346.350800,461.003387 363.168304,446.494873 
	C384.607056,427.999664 401.777466,406.361145 414.467255,381.088593 
	C417.950317,374.151886 426.399658,371.101105 433.461792,373.809753 
	C446.807526,378.928436 460.179688,383.978912 473.563354,388.997742 
	C482.097504,392.197968 486.281738,401.320740 482.768707,409.508057 
	C474.072571,429.774841 462.469421,448.274597 448.295349,465.125427 
	C442.120514,472.466400 435.447021,479.387970 428.750000,486.750000 
z"/>
<path fill="#55F9CE" opacity="1.000000" stroke="none" 
	d="
M5.304097,464.439880 
	C7.925928,453.167603 9.592535,442.066010 13.002651,431.528656 
	C17.022190,419.108154 24.100166,408.177460 32.384548,397.927795 
	C42.564568,385.332825 55.134918,375.829742 69.266624,368.587891 
	C81.856827,362.135986 95.419014,358.397491 109.714783,356.808258 
	C127.827736,354.794647 145.212067,356.921936 162.194794,362.998352 
	C176.118393,367.980225 188.552338,375.434082 199.846649,385.159088 
	C215.659241,398.774597 226.689636,415.503143 233.246674,435.001953 
	C236.298508,444.077209 237.207596,453.881500 238.969009,463.377411 
	C239.564758,466.589111 239.794479,469.868744 240.248886,473.587219 
	C161.748444,473.587219 83.727791,473.587219 5.120364,473.587219 
	C5.120364,470.720642 5.120364,467.790436 5.304097,464.439880 
z"/>
<path fill="#55F9CE" opacity="1.000000" stroke="none" 
	d="
M369.013824,895.000000 
	C364.891205,895.000000 361.264648,895.000000 357.324829,895.000000 
	C357.324829,874.566650 357.324829,854.561462 357.324829,833.559326 
	C368.398560,834.046448 379.399139,833.566833 390.061798,835.240295 
	C403.748657,837.388428 411.812042,848.737671 412.076630,862.776123 
	C412.204468,869.560059 411.290405,875.945068 407.628418,881.696838 
	C401.676117,891.045959 392.301971,894.075989 381.975739,894.942871 
	C377.847961,895.289429 373.666779,894.999939 369.013824,895.000000 
M396.000000,862.680908 
	C396.983704,852.574463 384.925842,844.853088 373.301605,847.788757 
	C373.301605,858.704895 373.301605,869.621094 373.301605,880.473511 
	C388.108612,883.333801 397.122620,875.841492 396.000000,862.680908 
z"/>
<path fill="#55F9CE" opacity="1.000000" stroke="none" 
	d="
M456.234314,874.433655 
	C453.414581,862.111267 454.720154,851.059753 463.636505,841.898621 
	C472.244263,833.054565 486.942871,830.434082 498.932800,835.470520 
	C509.747620,840.013245 516.766174,851.051636 517.206055,863.611694 
	C517.681335,877.181458 507.602112,891.507263 494.801392,894.187073 
	C478.040649,897.695801 462.949341,891.789673 456.234314,874.433655 
M471.012177,860.975708 
	C471.008118,862.473877 470.992859,863.972168 471.001740,865.470276 
	C471.068512,876.732117 480.634766,883.585999 491.311096,880.024780 
	C498.938934,877.480408 503.398590,867.380310 500.782288,858.575073 
	C498.448273,850.720032 490.668457,846.345825 482.914337,847.823975 
	C475.811584,849.177795 472.947418,854.032166 471.012177,860.975708 
z"/>
<path fill="#55F9CE" opacity="1.000000" stroke="none" 
	d="
M326.000000,861.983215 
	C326.000000,852.531799 326.000000,843.577087 326.000000,834.314819 
	C331.359436,834.314819 336.277252,834.314819 342.000000,834.314819 
	C342.000000,837.843384 342.000000,841.425781 342.000000,845.008118 
	C342.000000,853.665466 341.986633,862.322876 342.003052,870.980225 
	C342.029480,884.891724 331.788025,895.406433 318.046143,894.920654 
	C313.345490,894.754456 308.397888,894.432312 304.052429,892.843262 
	C294.941925,889.511902 291.185516,881.961975 291.046814,872.649719 
	C290.858734,860.019531 291.000000,847.384521 291.000000,834.377197 
	C296.020325,834.377197 300.720428,834.377197 306.000122,834.377197 
	C306.000122,845.601685 305.751099,856.713806 306.150757,867.802551 
	C306.271790,871.160950 307.586578,874.844055 309.426270,877.684326 
	C312.023315,881.693848 316.266602,881.795410 320.502686,879.992676 
	C324.480499,878.299866 326.170105,875.233032 326.018921,870.970093 
	C325.918671,868.143372 325.999969,865.310242 326.000000,861.983215 
z"/>
<path fill="#55F9CE" opacity="1.000000" stroke="none" 
	d="
M206.315262,852.000000 
	C204.514313,851.241272 203.072647,850.611694 201.851379,849.690002 
	C200.433456,848.619995 199.392349,846.660095 197.860443,846.216309 
	C195.040771,845.399719 192.013931,845.795227 190.969482,849.266785 
	C189.867920,852.928162 192.574097,854.723450 195.240021,855.888855 
	C200.345871,858.121033 205.746689,859.691589 210.806183,862.013672 
	C218.004044,865.317261 220.862625,870.964417 219.987808,878.942688 
	C219.190277,886.216187 213.892273,892.559265 206.899094,893.962952 
	C197.681580,895.813049 188.530762,896.542480 180.413940,890.164307 
	C175.963333,886.666931 174.039612,882.137146 174.049896,876.008423 
	C178.829346,876.008423 183.301147,875.813660 187.734650,876.139709 
	C188.902161,876.225647 190.309875,877.717896 190.990158,878.915039 
	C193.416077,883.184143 199.427444,884.070923 202.708221,880.460205 
	C205.131866,877.792847 203.125916,873.787781 198.398483,871.999878 
	C193.946304,870.316223 189.434402,868.788147 185.000031,867.060181 
	C177.141525,863.997925 173.696030,858.659363 174.001144,850.256165 
	C174.267319,842.924805 179.256241,836.148926 186.582062,834.312622 
	C195.611237,832.049316 204.650085,831.908936 212.548233,837.912354 
	C216.886841,841.210083 219.610764,845.559204 218.762466,852.000000 
	C214.679153,852.000000 210.725555,852.000000 206.315262,852.000000 
z"/>
<path fill="#55F9CE" opacity="1.000000" stroke="none" 
	d="
M232.338745,846.879822 
	C231.473846,842.780212 231.070038,838.763184 230.625839,834.344482 
	C246.628479,834.344482 261.877136,834.344482 277.564087,834.344482 
	C277.564087,838.233398 277.564087,842.272339 277.564087,846.774658 
	C273.030914,846.774658 268.436615,846.774658 263.220795,846.774658 
	C263.220795,862.918518 263.220795,878.626831 263.220795,894.662964 
	C257.683929,894.662964 252.764053,894.662964 247.212524,894.662964 
	C247.212524,879.071777 247.212524,863.364380 247.212524,846.962402 
	C242.004288,846.962402 237.402069,846.962402 232.338745,846.879822 
z"/>
<path fill="#55F9CE" opacity="1.000000" stroke="none" 
	d="
M434.933838,895.000000 
	C431.831604,895.000000 429.207123,895.000000 426.294800,895.000000 
	C426.294800,874.598633 426.294800,854.682800 426.294800,834.382751 
	C431.010742,834.382751 435.715668,834.382751 440.712921,834.382751 
	C440.712921,854.417419 440.712921,874.333069 440.712921,895.000000 
	C438.923309,895.000000 437.167419,895.000000 434.933838,895.000000 
z"/>
<path fill="#FFFFFF" opacity="1.000000" stroke="none" 
	d="
M396.000000,863.128296 
	C397.122620,875.841492 388.108612,883.333801 373.301605,880.473511 
	C373.301605,869.621094 373.301605,858.704895 373.302979,847.787598 
	C384.925842,844.853088 396.983704,852.574463 396.000000,863.128296 
z"/>
<path fill="#FFFFFF" opacity="1.000000" stroke="none" 
	d="
M471.040436,860.546631 
	C472.947418,854.032166 475.811584,849.177795 482.914337,847.823975 
	C490.668457,846.345825 498.448273,850.720032 500.782288,858.575073 
	C503.398590,867.380310 498.938934,877.480408 491.311096,880.024780 
	C480.634766,883.585999 471.068512,876.732117 471.001740,865.470276 
	C470.992859,863.972168 471.008118,862.473877 471.040436,860.546631 
z"/>
</svg>